<mxfile host="Electron" agent="Mozilla/5.0 (Windows NT 10.0; Win64; x64) AppleWebKit/537.36 (KHTML, like Gecko) draw.io/27.0.9 Chrome/134.0.6998.205 Electron/35.4.0 Safari/537.36" version="27.0.9">
  <diagram name="Page-1" id="wenHfTajHJDa7glRzrk_">
    <mxGraphModel dx="1738" dy="734" grid="1" gridSize="10" guides="1" tooltips="1" connect="1" arrows="1" fold="1" page="1" pageScale="1" pageWidth="850" pageHeight="1100" math="0" shadow="0">
      <root>
        <mxCell id="0" />
        <mxCell id="1" parent="0" />
        <mxCell id="AyiPmJkh6tFxpOLLxwlZ-20" value="" style="endArrow=classic;html=1;rounded=0;exitX=1;exitY=0.75;exitDx=0;exitDy=0;entryX=-0.016;entryY=0.625;entryDx=0;entryDy=0;entryPerimeter=0;" edge="1" parent="1" source="AyiPmJkh6tFxpOLLxwlZ-5" target="AyiPmJkh6tFxpOLLxwlZ-1">
          <mxGeometry width="50" height="50" relative="1" as="geometry">
            <mxPoint x="520" y="611.9400000000003" as="sourcePoint" />
            <mxPoint x="835.9099999999999" y="612.9400000000003" as="targetPoint" />
            <Array as="points">
              <mxPoint x="680" y="614" />
            </Array>
          </mxGeometry>
        </mxCell>
        <mxCell id="AyiPmJkh6tFxpOLLxwlZ-29" value="&lt;font style=&quot;font-size: 12px;&quot;&gt;Receive real-time results/notifications&lt;/font&gt;" style="edgeLabel;html=1;align=center;verticalAlign=middle;resizable=0;points=[];" vertex="1" connectable="0" parent="AyiPmJkh6tFxpOLLxwlZ-20">
          <mxGeometry x="-0.0953" y="1" relative="1" as="geometry">
            <mxPoint x="21" y="-43" as="offset" />
          </mxGeometry>
        </mxCell>
        <mxCell id="AyiPmJkh6tFxpOLLxwlZ-26" value="" style="endArrow=classic;html=1;rounded=0;entryX=1;entryY=0.15;entryDx=0;entryDy=0;entryPerimeter=0;exitX=0.045;exitY=0.309;exitDx=0;exitDy=0;exitPerimeter=0;" edge="1" parent="1" source="AyiPmJkh6tFxpOLLxwlZ-1" target="AyiPmJkh6tFxpOLLxwlZ-5">
          <mxGeometry width="50" height="50" relative="1" as="geometry">
            <mxPoint x="390" y="560" as="sourcePoint" />
            <mxPoint x="430" y="590" as="targetPoint" />
            <Array as="points" />
          </mxGeometry>
        </mxCell>
        <mxCell id="AyiPmJkh6tFxpOLLxwlZ-30" value="&lt;font style=&quot;font-size: 12px;&quot;&gt;Send&lt;span style=&quot;color: light-dark(rgb(0, 0, 0), rgb(255, 255, 255)); background-color: light-dark(#ffffff, var(--ge-dark-color, #121212));&quot;&gt;&amp;nbsp;user request&lt;/span&gt;&lt;/font&gt;" style="edgeLabel;html=1;align=center;verticalAlign=middle;resizable=0;points=[];" vertex="1" connectable="0" parent="AyiPmJkh6tFxpOLLxwlZ-26">
          <mxGeometry x="-0.0015" relative="1" as="geometry">
            <mxPoint x="-17" y="34" as="offset" />
          </mxGeometry>
        </mxCell>
        <mxCell id="AyiPmJkh6tFxpOLLxwlZ-1" value="Home rental and purchase system (Serverpod)" style="ellipse;whiteSpace=wrap;html=1;aspect=fixed;fillColor=light-dark(#225dd3, #6db2ff);fontColor=#ffffff;strokeColor=#001DBC;" vertex="1" parent="1">
          <mxGeometry x="820" y="545" width="110" height="110" as="geometry" />
        </mxCell>
        <mxCell id="AyiPmJkh6tFxpOLLxwlZ-5" value="Flutter App" style="rounded=0;whiteSpace=wrap;html=1;fillColor=#f8cecc;strokeColor=#b85450;" vertex="1" parent="1">
          <mxGeometry x="390" y="570" width="120" height="60" as="geometry" />
        </mxCell>
        <mxCell id="AyiPmJkh6tFxpOLLxwlZ-7" value="PostgreSQL" style="rounded=0;whiteSpace=wrap;html=1;fillColor=#f8cecc;strokeColor=#b85450;" vertex="1" parent="1">
          <mxGeometry x="820" y="810" width="120" height="60" as="geometry" />
        </mxCell>
        <mxCell id="AyiPmJkh6tFxpOLLxwlZ-8" value="Firebase Cloud Messaging" style="rounded=0;whiteSpace=wrap;html=1;fillColor=#f8cecc;strokeColor=#b85450;" vertex="1" parent="1">
          <mxGeometry x="600" y="350" width="120" height="60" as="geometry" />
        </mxCell>
        <mxCell id="AyiPmJkh6tFxpOLLxwlZ-9" value="S3 / Supabase Storage" style="rounded=0;whiteSpace=wrap;html=1;fillColor=#f8cecc;strokeColor=#b85450;" vertex="1" parent="1">
          <mxGeometry x="350" y="940" width="120" height="60" as="geometry" />
        </mxCell>
        <mxCell id="AyiPmJkh6tFxpOLLxwlZ-12" value="&lt;div&gt;Admin&lt;/div&gt;&lt;div&gt;&lt;br&gt;&lt;/div&gt;" style="sketch=0;outlineConnect=0;fontColor=#ffffff;strokeColor=#2D7600;fillColor=light-dark(#78CC24,#4A890C);dashed=0;verticalLabelPosition=bottom;verticalAlign=top;align=center;html=1;fontSize=12;fontStyle=0;aspect=fixed;shape=mxgraph.aws4.resourceIcon;resIcon=mxgraph.aws4.user;" vertex="1" parent="1">
          <mxGeometry x="1240" y="555" width="90" height="90" as="geometry" />
        </mxCell>
        <mxCell id="AyiPmJkh6tFxpOLLxwlZ-15" value="User" style="sketch=0;outlineConnect=0;fontColor=#ffffff;strokeColor=#2D7600;fillColor=#78CC24;dashed=0;verticalLabelPosition=bottom;verticalAlign=top;align=center;html=1;fontSize=12;fontStyle=0;aspect=fixed;shape=mxgraph.aws4.resourceIcon;resIcon=mxgraph.aws4.user;" vertex="1" parent="1">
          <mxGeometry x="40" y="562.5" width="92.5" height="92.5" as="geometry" />
        </mxCell>
        <mxCell id="AyiPmJkh6tFxpOLLxwlZ-32" value="" style="endArrow=classic;html=1;rounded=0;exitX=0.008;exitY=0.15;exitDx=0;exitDy=0;exitPerimeter=0;entryX=1;entryY=0.265;entryDx=0;entryDy=0;entryPerimeter=0;" edge="1" parent="1" source="AyiPmJkh6tFxpOLLxwlZ-5" target="AyiPmJkh6tFxpOLLxwlZ-15">
          <mxGeometry width="50" height="50" relative="1" as="geometry">
            <mxPoint x="210" y="540" as="sourcePoint" />
            <mxPoint x="150" y="520" as="targetPoint" />
          </mxGeometry>
        </mxCell>
        <mxCell id="AyiPmJkh6tFxpOLLxwlZ-42" value="Text" style="edgeLabel;html=1;align=center;verticalAlign=middle;resizable=0;points=[];" vertex="1" connectable="0" parent="AyiPmJkh6tFxpOLLxwlZ-32">
          <mxGeometry x="-0.038" y="-1" relative="1" as="geometry">
            <mxPoint as="offset" />
          </mxGeometry>
        </mxCell>
        <mxCell id="AyiPmJkh6tFxpOLLxwlZ-64" value="&lt;font style=&quot;font-size: 12px;&quot;&gt;Receive information and confirmation&lt;/font&gt;" style="edgeLabel;html=1;align=center;verticalAlign=middle;resizable=0;points=[];" vertex="1" connectable="0" parent="AyiPmJkh6tFxpOLLxwlZ-32">
          <mxGeometry x="-0.0624" relative="1" as="geometry">
            <mxPoint as="offset" />
          </mxGeometry>
        </mxCell>
        <mxCell id="AyiPmJkh6tFxpOLLxwlZ-36" value="" style="endArrow=classic;html=1;rounded=0;exitX=0.3;exitY=0.964;exitDx=0;exitDy=0;exitPerimeter=0;entryX=0.106;entryY=-0.048;entryDx=0;entryDy=0;entryPerimeter=0;" edge="1" parent="1" source="AyiPmJkh6tFxpOLLxwlZ-1" target="AyiPmJkh6tFxpOLLxwlZ-7">
          <mxGeometry width="50" height="50" relative="1" as="geometry">
            <mxPoint x="400" y="650" as="sourcePoint" />
            <mxPoint x="400" y="760" as="targetPoint" />
          </mxGeometry>
        </mxCell>
        <mxCell id="AyiPmJkh6tFxpOLLxwlZ-69" value="&lt;font style=&quot;font-size: 12px;&quot;&gt;Send Query/store user data&lt;/font&gt;" style="edgeLabel;html=1;align=center;verticalAlign=middle;resizable=0;points=[];" vertex="1" connectable="0" parent="AyiPmJkh6tFxpOLLxwlZ-36">
          <mxGeometry x="-0.0629" y="3" relative="1" as="geometry">
            <mxPoint x="-27" y="46" as="offset" />
          </mxGeometry>
        </mxCell>
        <mxCell id="AyiPmJkh6tFxpOLLxwlZ-37" value="" style="endArrow=classic;html=1;rounded=0;exitX=0.227;exitY=0.927;exitDx=0;exitDy=0;exitPerimeter=0;entryX=0.917;entryY=-0.017;entryDx=0;entryDy=0;entryPerimeter=0;" edge="1" parent="1" source="AyiPmJkh6tFxpOLLxwlZ-1" target="AyiPmJkh6tFxpOLLxwlZ-9">
          <mxGeometry width="50" height="50" relative="1" as="geometry">
            <mxPoint x="850.0299999999997" y="648.95" as="sourcePoint" />
            <mxPoint x="401.00000000000006" y="1002.02" as="targetPoint" />
          </mxGeometry>
        </mxCell>
        <mxCell id="AyiPmJkh6tFxpOLLxwlZ-46" value="&lt;font style=&quot;font-size: 12px;&quot;&gt;Create photo/video upload URL&lt;/font&gt;" style="edgeLabel;html=1;align=center;verticalAlign=middle;resizable=0;points=[];" vertex="1" connectable="0" parent="AyiPmJkh6tFxpOLLxwlZ-37">
          <mxGeometry x="-0.0837" y="1" relative="1" as="geometry">
            <mxPoint x="-29" y="29" as="offset" />
          </mxGeometry>
        </mxCell>
        <mxCell id="AyiPmJkh6tFxpOLLxwlZ-39" value="" style="endArrow=classic;html=1;rounded=0;entryX=0.75;entryY=1;entryDx=0;entryDy=0;" edge="1" parent="1" source="AyiPmJkh6tFxpOLLxwlZ-1" target="AyiPmJkh6tFxpOLLxwlZ-8">
          <mxGeometry width="50" height="50" relative="1" as="geometry">
            <mxPoint x="380" y="510" as="sourcePoint" />
            <mxPoint x="430" y="460" as="targetPoint" />
          </mxGeometry>
        </mxCell>
        <mxCell id="AyiPmJkh6tFxpOLLxwlZ-44" value="&lt;font style=&quot;font-size: 12px;&quot;&gt;Push notification&lt;/font&gt;" style="edgeLabel;html=1;align=center;verticalAlign=middle;resizable=0;points=[];" vertex="1" connectable="0" parent="AyiPmJkh6tFxpOLLxwlZ-39">
          <mxGeometry x="-0.0257" y="-3" relative="1" as="geometry">
            <mxPoint x="4" y="4" as="offset" />
          </mxGeometry>
        </mxCell>
        <mxCell id="AyiPmJkh6tFxpOLLxwlZ-40" value="" style="endArrow=classic;html=1;rounded=0;entryX=0.5;entryY=0;entryDx=0;entryDy=0;exitX=0.25;exitY=1;exitDx=0;exitDy=0;" edge="1" parent="1" source="AyiPmJkh6tFxpOLLxwlZ-8" target="AyiPmJkh6tFxpOLLxwlZ-5">
          <mxGeometry width="50" height="50" relative="1" as="geometry">
            <mxPoint x="150" y="520" as="sourcePoint" />
            <mxPoint x="200" y="470" as="targetPoint" />
          </mxGeometry>
        </mxCell>
        <mxCell id="AyiPmJkh6tFxpOLLxwlZ-43" value="&lt;font style=&quot;font-size: 12px;&quot;&gt;Show notifications&lt;/font&gt;" style="edgeLabel;html=1;align=center;verticalAlign=middle;resizable=0;points=[];" vertex="1" connectable="0" parent="AyiPmJkh6tFxpOLLxwlZ-40">
          <mxGeometry x="-0.0857" relative="1" as="geometry">
            <mxPoint x="-13" y="7" as="offset" />
          </mxGeometry>
        </mxCell>
        <mxCell id="AyiPmJkh6tFxpOLLxwlZ-41" value="" style="endArrow=classic;html=1;rounded=0;entryX=1;entryY=0.5;entryDx=0;entryDy=0;" edge="1" parent="1" source="AyiPmJkh6tFxpOLLxwlZ-12" target="AyiPmJkh6tFxpOLLxwlZ-1">
          <mxGeometry width="50" height="50" relative="1" as="geometry">
            <mxPoint x="680" y="760" as="sourcePoint" />
            <mxPoint x="480" y="610" as="targetPoint" />
          </mxGeometry>
        </mxCell>
        <mxCell id="AyiPmJkh6tFxpOLLxwlZ-45" value="&lt;font style=&quot;font-size: 12px;&quot;&gt;Post management/manual verification/statistics&lt;/font&gt;" style="edgeLabel;html=1;align=center;verticalAlign=middle;resizable=0;points=[];rotation=0;" vertex="1" connectable="0" parent="AyiPmJkh6tFxpOLLxwlZ-41">
          <mxGeometry x="-0.0069" relative="1" as="geometry">
            <mxPoint x="4" as="offset" />
          </mxGeometry>
        </mxCell>
        <mxCell id="AyiPmJkh6tFxpOLLxwlZ-49" value="" style="endArrow=classic;html=1;rounded=0;entryX=0.727;entryY=0.945;entryDx=0;entryDy=0;entryPerimeter=0;exitX=0.856;exitY=-0.048;exitDx=0;exitDy=0;exitPerimeter=0;" edge="1" parent="1" source="AyiPmJkh6tFxpOLLxwlZ-7" target="AyiPmJkh6tFxpOLLxwlZ-1">
          <mxGeometry width="50" height="50" relative="1" as="geometry">
            <mxPoint x="450" y="730" as="sourcePoint" />
            <mxPoint x="500" y="680" as="targetPoint" />
          </mxGeometry>
        </mxCell>
        <mxCell id="AyiPmJkh6tFxpOLLxwlZ-56" value="&lt;font style=&quot;font-size: 12px;&quot;&gt;Receive query results&lt;/font&gt;" style="edgeLabel;html=1;align=center;verticalAlign=middle;resizable=0;points=[];" vertex="1" connectable="0" parent="AyiPmJkh6tFxpOLLxwlZ-49">
          <mxGeometry x="0.0887" y="2" relative="1" as="geometry">
            <mxPoint x="32" y="-23" as="offset" />
          </mxGeometry>
        </mxCell>
        <mxCell id="AyiPmJkh6tFxpOLLxwlZ-50" value="DartFrog&amp;nbsp;Edge API" style="rounded=0;whiteSpace=wrap;html=1;fillColor=#f8cecc;strokeColor=#b85450;" vertex="1" parent="1">
          <mxGeometry x="390" y="760" width="120" height="60" as="geometry" />
        </mxCell>
        <mxCell id="AyiPmJkh6tFxpOLLxwlZ-52" value="" style="endArrow=classic;html=1;rounded=0;entryX=0.085;entryY=0.787;entryDx=0;entryDy=0;exitX=1.008;exitY=0.133;exitDx=0;exitDy=0;exitPerimeter=0;entryPerimeter=0;" edge="1" parent="1" source="AyiPmJkh6tFxpOLLxwlZ-50" target="AyiPmJkh6tFxpOLLxwlZ-1">
          <mxGeometry width="50" height="50" relative="1" as="geometry">
            <mxPoint x="280" y="760" as="sourcePoint" />
            <mxPoint x="330" y="710" as="targetPoint" />
          </mxGeometry>
        </mxCell>
        <mxCell id="AyiPmJkh6tFxpOLLxwlZ-54" value="" style="endArrow=classic;html=1;rounded=0;exitX=0.5;exitY=1;exitDx=0;exitDy=0;entryX=0.5;entryY=0;entryDx=0;entryDy=0;" edge="1" parent="1" source="AyiPmJkh6tFxpOLLxwlZ-5" target="AyiPmJkh6tFxpOLLxwlZ-50">
          <mxGeometry width="50" height="50" relative="1" as="geometry">
            <mxPoint x="451.03999999999996" y="642.5" as="sourcePoint" />
            <mxPoint x="450" y="774.48" as="targetPoint" />
          </mxGeometry>
        </mxCell>
        <mxCell id="AyiPmJkh6tFxpOLLxwlZ-59" value="&lt;font style=&quot;font-size: 12px;&quot;&gt;Upload photos/videos&lt;/font&gt;" style="edgeLabel;html=1;align=center;verticalAlign=middle;resizable=0;points=[];" vertex="1" connectable="0" parent="AyiPmJkh6tFxpOLLxwlZ-54">
          <mxGeometry x="-0.047" y="-1" relative="1" as="geometry">
            <mxPoint x="1" y="-2" as="offset" />
          </mxGeometry>
        </mxCell>
        <mxCell id="AyiPmJkh6tFxpOLLxwlZ-62" value="" style="endArrow=classic;html=1;rounded=0;entryX=0;entryY=0.75;entryDx=0;entryDy=0;" edge="1" parent="1" source="AyiPmJkh6tFxpOLLxwlZ-15" target="AyiPmJkh6tFxpOLLxwlZ-5">
          <mxGeometry width="50" height="50" relative="1" as="geometry">
            <mxPoint x="140" y="615" as="sourcePoint" />
            <mxPoint x="260" y="620" as="targetPoint" />
          </mxGeometry>
        </mxCell>
        <mxCell id="AyiPmJkh6tFxpOLLxwlZ-63" value="&lt;font style=&quot;font-size: 12px;&quot;&gt;Send and request information&lt;/font&gt;" style="edgeLabel;html=1;align=center;verticalAlign=middle;resizable=0;points=[];" vertex="1" connectable="0" parent="AyiPmJkh6tFxpOLLxwlZ-62">
          <mxGeometry x="-0.0498" y="-1" relative="1" as="geometry">
            <mxPoint as="offset" />
          </mxGeometry>
        </mxCell>
        <mxCell id="AyiPmJkh6tFxpOLLxwlZ-73" value="" style="endArrow=classic;html=1;rounded=0;entryX=0.5;entryY=1;entryDx=0;entryDy=0;exitX=0.5;exitY=0;exitDx=0;exitDy=0;" edge="1" parent="1" source="AyiPmJkh6tFxpOLLxwlZ-9" target="AyiPmJkh6tFxpOLLxwlZ-50">
          <mxGeometry width="50" height="50" relative="1" as="geometry">
            <mxPoint x="390" y="910" as="sourcePoint" />
            <mxPoint x="440" y="860" as="targetPoint" />
          </mxGeometry>
        </mxCell>
        <mxCell id="AyiPmJkh6tFxpOLLxwlZ-74" value="&lt;font style=&quot;font-size: 12px;&quot;&gt;Webhook when upload successful&lt;/font&gt;" style="edgeLabel;html=1;align=center;verticalAlign=middle;resizable=0;points=[];" vertex="1" connectable="0" parent="AyiPmJkh6tFxpOLLxwlZ-73">
          <mxGeometry x="-0.0342" y="3" relative="1" as="geometry">
            <mxPoint x="-36" y="-11" as="offset" />
          </mxGeometry>
        </mxCell>
      </root>
    </mxGraphModel>
  </diagram>
</mxfile>
